<svg width="92" height="25" viewBox="0 0 92 25" fill="none" xmlns="http://www.w3.org/2000/svg">
<path opacity="0.9" d="M13.96 2.94V6.84H5.38V11.37H11.8V15.27H5.38V24H0.25V2.94H13.96ZM23.2959 7.08C25.4359 7.08 27.0759 7.87 28.2159 9.45V7.26H33.3459V24H28.2159V21.57C26.9759 23.33 25.3359 24.21 23.2959 24.21C21.9159 24.21 20.6359 23.85 19.4559 23.13C18.2959 22.41 17.3759 21.4 16.6959 20.1C16.0159 18.8 15.6759 17.32 15.6759 15.66C15.6759 14 16.0159 12.52 16.6959 11.22C17.3759 9.92 18.2959 8.91 19.4559 8.19C20.6359 7.45 21.9159 7.08 23.2959 7.08ZM24.5559 11.52C23.9559 11.52 23.3659 11.68 22.7859 12C22.2259 12.3 21.7659 12.76 21.4059 13.38C21.0659 14 20.8959 14.76 20.8959 15.66C20.8959 16.56 21.0659 17.32 21.4059 17.94C21.7659 18.54 22.2259 19 22.7859 19.32C23.3459 19.62 23.9359 19.77 24.5559 19.77C25.1559 19.77 25.7359 19.62 26.2959 19.32C26.8759 19 27.3359 18.53 27.6759 17.91C28.0359 17.29 28.2159 16.53 28.2159 15.63C28.2159 14.73 28.0359 13.98 27.6759 13.38C27.3359 12.76 26.8859 12.3 26.3259 12C25.7659 11.68 25.1759 11.52 24.5559 11.52ZM47.3031 7.08C48.6831 7.08 49.9531 7.45 51.1131 8.19C52.2931 8.91 53.2231 9.92 53.9031 11.22C54.5831 12.52 54.9231 14 54.9231 15.66C54.9231 17.32 54.5831 18.8 53.9031 20.1C53.2231 21.4 52.2931 22.41 51.1131 23.13C49.9531 23.85 48.6831 24.21 47.3031 24.21C45.2231 24.21 43.5831 23.33 42.3831 21.57V24H37.2531V1.8H42.3831V9.45C43.5231 7.87 45.1631 7.08 47.3031 7.08ZM46.0431 11.52C45.4231 11.52 44.8331 11.68 44.2731 12C43.7131 12.3 43.2531 12.76 42.8931 13.38C42.5531 13.98 42.3831 14.73 42.3831 15.63C42.3831 16.53 42.5531 17.29 42.8931 17.91C43.2531 18.53 43.7131 19 44.2731 19.32C44.8531 19.62 45.4431 19.77 46.0431 19.77C46.6631 19.77 47.2531 19.62 47.8131 19.32C48.3731 19 48.8231 18.54 49.1631 17.94C49.5231 17.32 49.7031 16.56 49.7031 15.66C49.7031 14.76 49.5231 14 49.1631 13.38C48.8231 12.76 48.3631 12.3 47.7831 12C47.2231 11.68 46.6431 11.52 46.0431 11.52ZM57.1504 3.24C57.1504 2.38 57.4404 1.66 58.0204 1.08C58.6004 0.499999 59.3104 0.209999 60.1504 0.209999C60.9904 0.209999 61.7004 0.499999 62.2804 1.08C62.8604 1.66 63.1504 2.38 63.1504 3.24C63.1504 4.08 62.8604 4.79 62.2804 5.37C61.7004 5.95 60.9904 6.24 60.1504 6.24C59.3104 6.24 58.6004 5.95 58.0204 5.37C57.4404 4.79 57.1504 4.08 57.1504 3.24ZM62.7304 7.26V24H57.6004V7.26H62.7304ZM75.5791 19.65V24H72.9691C71.0891 24 69.6291 23.59 68.5891 22.77C67.5691 21.93 67.0591 20.5 67.0591 18.48V11.52H65.4991V7.26H67.0591V3.18H72.1891V7.26H75.5491V11.52H72.1891V18.48C72.1891 18.88 72.3091 19.18 72.5491 19.38C72.7891 19.56 73.1891 19.65 73.7491 19.65H75.5791ZM84.5802 7.08C86.5802 7.08 88.2402 7.57 89.5602 8.55C90.8802 9.53 91.5802 10.87 91.6602 12.57H86.4102C86.3502 11.99 86.1502 11.6 85.8102 11.4C85.4702 11.18 84.9602 11.07 84.2802 11.07C83.6402 11.07 83.1402 11.18 82.7802 11.4C82.4402 11.6 82.2702 11.9 82.2702 12.3C82.2702 12.76 82.5202 13.1 83.0202 13.32C83.5402 13.52 84.3802 13.75 85.5402 14.01C86.8002 14.27 87.8402 14.55 88.6602 14.85C89.5002 15.13 90.2202 15.6 90.8202 16.26C91.4202 16.9 91.7202 17.78 91.7202 18.9C91.7202 19.94 91.4102 20.86 90.7902 21.66C90.1902 22.46 89.3502 23.09 88.2702 23.55C87.2102 23.99 86.0202 24.21 84.7002 24.21C82.6202 24.21 80.9002 23.75 79.5402 22.83C78.1802 21.89 77.4402 20.51 77.3202 18.69H82.5702C82.6502 19.23 82.8702 19.62 83.2302 19.86C83.5902 20.1 84.0902 20.22 84.7302 20.22C85.3302 20.22 85.8202 20.08 86.2002 19.8C86.6002 19.52 86.8002 19.18 86.8002 18.78C86.8002 18.3 86.5302 17.95 85.9902 17.73C85.4502 17.49 84.6002 17.25 83.4402 17.01C82.1802 16.75 81.1402 16.48 80.3202 16.2C79.5202 15.92 78.8202 15.47 78.2202 14.85C77.6402 14.21 77.3502 13.36 77.3502 12.3C77.3502 11.34 77.6202 10.47 78.1602 9.69C78.7202 8.89 79.5402 8.26 80.6202 7.8C81.7202 7.32 83.0402 7.08 84.5802 7.08Z" fill="#3F2735"/>
</svg>
