<?xml version="1.0" encoding="utf-8"?>
<!-- Generator: Adobe Illustrator 27.1.0, SVG Export Plug-In . SVG Version: 6.00 Build 0)  -->
<svg version="1.1" id="Layer_1" xmlns="http://www.w3.org/2000/svg" xmlns:xlink="http://www.w3.org/1999/xlink" x="0px" y="0px"
	 viewBox="0 0 1082 1080" style="enable-background:new 0 0 1082 1080;" xml:space="preserve">
<style type="text/css">
	.st0{fill:#4F9B7E;}
</style>
<g>
	<path d="M671.2,670.6l68.3-60.3l23.1,26.1c3.7,4.2,10.1,4.6,14.2,0.9l57.6-50.9l-1,15.6c-0.3,5.6,3.9,10.4,9.4,10.7
		c5.6,0.3,10.4-3.9,10.7-9.4l2.5-39.7c0.3-5.6-3.9-10.4-9.4-10.7l-39.7-2.5c-5.6-0.3-10.4,3.9-10.7,9.4c-0.3,5.6,3.9,10.4,9.4,10.7
		l15.1,0.9l-49.7,43.9L748,589.2c-3.7-4.2-10.1-4.6-14.2-0.9l-75.9,67.1c-4.2,3.7-4.6,10.1-0.9,14.2
		C660.6,673.8,666.9,674.3,671.2,670.6C671.1,670.6,671.2,670.6,671.2,670.6z"/>
</g>
<g>
	<g>
		<path class="st0" d="M618.1,374.8L461.5,374c-19.9-0.1-36.1-16.4-36.1-36.2c0-1.6,0.1-3.1,0.3-4.6
			c-74.9,21.9-112.9,65.5-112.9,129.7v117.4c0,89,71,161.6,161.6,165.4h11.3c52.2,0,98.8-24.4,129.1-62.4
			c-4.4-7.1-8.3-14.5-11.6-22.3c-8.4-19.9-12.7-41-12.7-62.7c0-21.7,4.3-42.8,12.7-62.7c8.1-19.2,19.7-36.4,34.5-51.2
			c4.1-4.1,8.4-7.9,12.9-11.5v-10c0-28.4-8.4-58.1-23.7-83.9L618.1,374.8z"/>
		<path class="st0" d="M518.5,303.3l48.1-110.2c0.1-0.3,0.3-0.6,0.4-0.8c2.2-3.9,0.7-7.3,0-8.6c-0.7-1.3-3-4.3-7.4-4.3H403.9
			c-4.5,0-6.7,3-7.4,4.3c-0.7,1.3-2.2,4.7,0,8.6c0.2,0.3,0.3,0.5,0.4,0.8L445,303.3H518.5z"/>
		<path d="M764.8,356.2h139.5c4.9,0,8.8-4,8.5-8.9c-0.3-4.3-3.9-7.8-8.4-7.8l0,0H764.8c-4.6,0-8.3-3.7-8.3-8.3V102.3
			c0-4.6,3.7-8.3,8.3-8.3h139.8l0,0c4.4,0,8.1-3.4,8.4-7.8c0.3-4.9-3.6-8.9-8.5-8.9H764.7c0,0-25.1,11.3-25,25.2v21.9
			c-14.3-2.2-28.2-6.2-41.5-11.8l-51.5-21.9c-25.8-11-53-16.4-81-16h-55.7c-25.3,0.9-50.8,2.9-75.9,6.5l-76.1,11.1
			c-10.5,1.5-19.7,7.1-26,15.7c-6.3,8.6-8.8,19.1-7.1,29.5l0,0.1c0.5,2.9,1.3,5.7,2.3,8.4c-10.3,8.8-15.5,22.5-13.2,36.2l0,0.1
			c0.5,2.9,1.3,5.8,2.4,8.5c-5,3.1-9.2,7.4-12.4,12.5c-5,8.1-6.9,17.7-5.4,27.1l0,0.1c1.7,10.2,7.2,19.2,15.5,25.2
			c8.3,6.1,18.5,8.6,28.8,7.1l61.9-9l26.4,60.4c-40,10.3-83.2,32.6-105.6,53.9c-27.4,26-29.7,94.8-29.7,94.8v117.4
			c0,47.4,18.4,92.3,51.9,126.5c33.3,34,78.1,53.8,126,55.7c0.1,0,0.2,0,0.3,0h11.5c24.5,0,48.3-4.8,70.7-14.3
			c21.6-9.1,41.1-22.2,57.7-38.9c3.7-3.7,7.3-7.6,10.7-11.6c4,5.1,8.3,9.9,12.9,14.6c14.8,14.8,32,26.4,51.2,34.5
			c19.9,8.4,41,12.7,62.7,12.7s42.9-4.3,62.7-12.7c19.2-8.1,36.4-19.7,51.2-34.5c14.8-14.8,26.4-32,34.5-51.2
			c8.4-19.9,12.7-41,12.7-62.7s-4.3-42.9-12.7-62.7c-8.1-19.2-19.7-36.4-34.5-51.2c-14.8-14.8-32-26.4-51.2-34.5
			c-19.9-8.4-41-12.7-62.7-12.7s-42.9,4.3-62.7,12.7c-7.5,3.2-14.7,6.9-21.6,11.2c-0.2-16-2.7-32.2-7.4-48.2
			c-4.1-13.7-9.8-27-16.9-39.5c11.1-1.7,21.7-4.9,31.6-9.5c23.4-10.9,44.5-27.2,61-47.1c1.4-1.7,2.7-3.4,4.1-5.2v19.8
			C739.7,344.9,751,356.2,764.8,356.2z M650.6,472.8c-4.5,3.6-8.7,7.4-12.8,11.5c-14.8,14.8-26.4,32-34.5,51.2
			c-8.4,19.9-12.7,41-12.7,62.7c0,21.7,4.3,42.8,12.7,62.7c3.3,7.8,7.2,15.2,11.6,22.3c-30.2,38-76.8,62.4-129,62.4h-11.4
			c-90.7-3.8-161.6-76.4-161.6-165.5V462.7c0-64.2,38-107.8,112.9-129.8c-0.2,1.5-0.3,3.1-0.3,4.6c0,19.9,16.2,36.2,36.1,36.3
			l156.6,0.8l8.8,4.2c15.3,25.8,23.7,55.6,23.7,84L650.6,472.8L650.6,472.8L650.6,472.8z M896.1,598.2
			c0,79.6-64.8,144.4-144.4,144.4s-144.4-64.8-144.4-144.4c0-79.6,64.8-144.4,144.4-144.4S896.1,518.5,896.1,598.2z M445,303.3
			l-48.1-110.2c-0.1-0.3-0.3-0.6-0.4-0.8c-2.2-3.9-0.7-7.3,0-8.6c0.7-1.3,3-4.3,7.4-4.3h155.8c4.5,0,6.7,3,7.4,4.3
			c0.7,1.3,2.2,4.7,0,8.6c-0.2,0.3-0.3,0.5-0.4,0.8l-48.1,110.2H445z M555.1,261.5l27.5,3.3c12.2,1.5,17.2,11.1,17.8,18.9
			c0.6,7.6-2.6,16.7-13.1,20.1l-50.5-0.2L555.1,261.5z M623.5,357.9c-0.2,0-0.4,0-0.6,0l-161.2-0.8c-10.7-0.1-19.4-8.8-19.4-19.6
			c0-4.7,1.8-9.2,5.2-12.5c2.8-2.8,6.4-4.6,10.4-5h28l102.5,0.7c0,0,0,0,0,0c0.8,0,1.5-0.1,2.2-0.3c17.1-4.7,27.8-19.9,26.4-37.8
			c-0.6-8.3-3.9-16.1-9.2-22.2c-5.9-6.8-14-10.9-23.3-12.1l-22.5-2.7l19.8-45.3c4.3-7.8,4.2-17.1-0.3-24.9
			c-4.6-7.9-12.8-12.7-21.9-12.7h-156c-9.2,0-17.4,4.7-21.9,12.7c-4.5,7.8-4.6,17.1-0.3,24.9l16.4,37.6l-57.4,8.4
			c-12,1.8-23.4-6.6-25.3-18.5l0-0.1c-1.8-10.8,4.6-21.5,15-25c0.6-0.2,1.2-0.4,1.8-0.7c3.6-1.9,5.4-6.1,4.1-10
			c-0.3-1.1-0.9-2-1.6-2.8c-2.1-2.8-3.4-6.1-4-9.6l0-0.1c-1.5-9.3,2.9-18.6,11.1-23.2c0,0,0,0,0.1,0c3.9-1.9,5.8-6.5,4.2-10.5
			c-0.3-0.7-0.6-1.4-1.1-2c-1.8-2.7-2.9-5.6-3.5-8.8l0-0.1c-1-6,0.5-12,4-16.9c3.6-4.9,8.9-8.1,14.9-9l76.1-11.1
			c24.3-3.6,49.1-5.5,73.7-5.8l55.7-0.6c25.7-0.3,50.7,4.7,74.3,14.7l51.5,21.9c15.4,6.6,31.5,11,48,13.3v137.8l-0.1,0.1
			c-5,10-10.7,18.9-16.9,26.4c-14.9,18.1-34,32.8-55.1,42.7C654.3,354.7,639.4,357.9,623.5,357.9z"/>
		<path d="M644.5,804.6c-12.4,0-24,4.8-32.8,13.4L564,863.5c-3.1-18.2-19-31.6-38.8-31.6h-42.6c-28.5-27.3-62.1-41.6-97.5-41.6
			c-39.5,0-78.3,15.1-104.7,39.8v-61.8c0-4.7-3.8-8.5-8.5-8.5h-91.5c-0.7,0-1.6,0.4-2.1,0.9c-7.1,7.2-2.1,15.8,4.9,15.8l0,0H261
			c1.6,0,2.8,1.3,2.8,2.8V1021c0,1.6-1.3,2.8-2.8,2.8h-77.7l0,0c-7,0-12,8.6-4.9,15.8c0.5,0.5,1.4,0.9,2.1,0.9h91.5
			c4.7,0,8.5-3.8,8.5-8.5l0-46.5h271.2c14.7,0,28.1-5.5,38.6-15.9l87-86.2c8.8-8.7,13.6-20.3,13.6-32.6c0-12.3-4.8-23.9-13.6-32.6
			C668.6,809.4,656.9,804.6,644.5,804.6z M280.5,854.9c22.1-29.4,62.8-48.2,104.6-48.2c40.3,0,70.2,21.4,88.2,39.4
			c1.6,1.6,3.7,2.4,5.9,2.4h46c12.6,0,22.6,9.4,22.6,21.5c0,5.3-1.8,10.1-5.2,13.9l-2.6,2.5c-4.1,3.3-9.3,5.1-14.8,5.1H403.1
			c-4.9,0-8.8,4-8.5,8.9c0.3,4.3,3.9,7.8,8.3,7.8h122.4c9.4,0,18.5-3.2,25.6-9c0,0,0,0,0,0c1.3-1.1,2.6-2.3,3.7-3.5l68.8-65.5
			c0,0,0.1-0.1,0.1-0.1c5.6-5.6,13.1-8.6,21-8.6c8,0,15.4,3.1,21.1,8.7c5.6,5.5,8.7,12.9,8.7,20.7c0,7.8-3.1,15.2-8.7,20.7
			l-87.1,86.2c-7.4,7.4-16.5,11.1-26.8,11.1H280.5V854.9z"/>
	</g>
	<g id="_x37_2umgZ_00000147203770397331794870000005220298248219141556_">
		<g>
			<path d="M386.4,512.7c5.1-7.6,10.1-15,15.1-22.5c1.2-1.8,2.9-1.3,4.5-1.3c23.8,0,47.5,0,71.3,0c1.5,0,3,0,4.9,0
				c-1-4.2-3.6-7.1-6.3-9.9c-9.6-9.8-21.7-14.3-34.9-16c-16.3-2-32.8-0.7-49.1-1.5c-1.3-0.1-2.7,0.4-4.4-0.7
				c5-7.4,9.9-14.7,14.8-22.1c1.2-1.8,3-1.2,4.5-1.2c30.3-0.1,60.6-0.2,90.9-0.3c21.7-0.1,43.4-0.1,65.1-0.2c1.9,0,3.9,0,6,0
				c-0.1,2.2-1.5,3.4-2.4,4.8c-3.6,5.6-7.4,11.1-10.8,16.8c-1.3,2.1-2.8,2.9-5.3,2.9c-11.8-0.1-23.6-0.1-35.4-0.1
				c-1.6,0-3.3,0-4.9,0c-0.5,1.8,0.7,2.5,1.3,3.5c4.2,6.6,8.1,13.3,9.8,21c0.5,2.5,1.9,2.8,4.1,2.8c13.1-0.1,26.1,0,39.2,0
				c1.5,0,3,0,5.3,0c-5.4,8.2-10.3,15.8-15.3,23.5c-0.9,1.3-2.2,1-3.4,1c-8.3,0.2-16.7,0.4-25,0.6c-1.7,0-3.1-0.2-3.5,2.3
				c-5.6,29.5-24.5,47-52,56.3c-10.6,3.6-21.5,5.1-32.8,6c0.1,1.9,1.4,2.9,2.3,4c29.2,36.4,58.4,72.8,87.7,109.2
				c0.8,1,1.7,1.9,2.2,3c1.3,2.7,0.2,4.4-2.8,4.5c-10.3,0.2-20.6,0.3-30.9,0.6c-2.3,0.1-3.8-0.6-5.3-2.4
				c-31.3-37.2-62.7-74.4-94.1-111.5c-1.3-1.5-1.8-3-1.8-4.9c0-5.7,0-11.4-0.3-17.1c-0.2-2.9,1-3.4,3.6-3.2
				c15.8,1.2,31.4,0.5,46.8-3.5c13.3-3.4,25.4-9,33.7-20.8c4-5.7,5.9-12.2,7-19c0.5-3.4-0.5-4.2-3.9-4.2c-30,0.1-60.1,0.1-90.1,0.1
				C390,513.4,388.3,513.8,386.4,512.7z"/>
		</g>
	</g>
</g>
</svg>
