<?xml version="1.0" encoding="utf-8"?>
<!-- Generator: Adobe Illustrator 27.1.0, SVG Export Plug-In . SVG Version: 6.00 Build 0)  -->
<svg version="1.1" id="Layer_1" xmlns="http://www.w3.org/2000/svg" xmlns:xlink="http://www.w3.org/1999/xlink" x="0px" y="0px"
	 viewBox="0 0 1082 1080" style="enable-background:new 0 0 1082 1080;" xml:space="preserve">
<style type="text/css">
	.st0{fill:#4F9B7E;}
</style>
<g>
	<g>
		<polygon class="st0" points="459.7,802.2 627.1,802.2 653.7,733.7 630.9,665.2 581.5,634.8 535.2,630.9 491.8,642.4 463.5,669 
			444.5,703.3 440.7,733.7 444.5,764.1 		"/>
		<polygon class="st0" points="710.8,619.6 878.2,619.6 904.8,551.1 882,482.6 832.6,452.2 786.3,448.3 742.9,459.8 714.6,486.4 
			695.6,520.7 691.8,551.1 695.6,581.5 		"/>
		<g>
			<rect x="382.6" y="884.6" width="46.1" height="23.1"/>
			<rect x="428.8" y="930.8" width="46.1" height="23.1"/>
			<rect x="474.9" y="884.6" width="46.1" height="23.1"/>
			<rect x="521.1" y="930.8" width="46.1" height="23.1"/>
			<rect x="567.2" y="884.6" width="46.1" height="23.1"/>
			<rect x="613.4" y="930.8" width="46.1" height="23.1"/>
			<rect x="659.5" y="884.6" width="46.1" height="23.1"/>
			<path d="M1030.5,635.3c-3.3-16.4-18.8-27.5-35.5-27.5l-16.5,0c4.3-18.2,6.6-37.5,6.6-57.7c0-125.2-78.9-265.3-184.6-265.3
				c-90.4,0-160.6,104.9-179.4,209.1c-22.5-15.5-47.6-24.5-74.4-24.5c-105.6,0-184.6,140.1-184.6,265.3c0,20.1,2.3,39.5,6.6,57.7
				l-16.5,0c-16.7,0-32.3,11.1-35.5,27.5c-3.7,18.3,7.2,34.6,23.1,39.8l7.3,87.4c2.5,29.7,27.7,52.9,57.5,52.9h284.2
				c29.8,0,55-23.2,57.5-52.9l7.3-87.4c13.8-4.6,23.8-17.4,23.8-32.7c0-4.1-0.8-7.9-2.1-11.5h167.3c29.8,0,55-23.2,57.5-52.9
				l7.3-87.4C1023.3,669.9,1034.2,653.6,1030.5,635.3z M800.5,307.9c91,0,161.5,130.2,161.5,242.2c0,20.3-2.6,39.7-7.4,57.7h-54.4
				c17.7-30.4,21.3-67.9,6.3-103.2c-15.2-35.6-48-61.8-86.2-68.2C748,424.3,685.2,480,685.2,550.1c0,6.2,0.6,12.3,1.6,18.2
				c-12.7-22.1-27.8-41.8-44.8-57.6C655.5,411.6,721.2,307.9,800.5,307.9z M789,607.8h-60.2c-21.3-26.5-27.2-63-11.9-96.5
				c12.1-26.5,36.8-46.2,65.5-51.7c58.8-11.3,110.5,33.7,110.5,90.5c0,21-7.3,41.3-20.5,57.7h-60.2 M385.2,734.7
				c0-112,70.5-242.2,161.5-242.2s161.5,130.2,161.5,242.2c0,20.3-2.6,39.7-7.4,57.7h-54.4c17.7-30.4,21.3-67.9,6.3-103.2
				c-15.2-35.6-48-61.8-86.2-68.2c-72.3-12.1-135.1,43.6-135.1,113.7c0,20.4,5.5,40.2,15.7,57.7h-54.4
				C387.8,774.3,385.2,755,385.2,734.7z M535.2,792.4H475c-21.3-26.5-27.2-63-11.9-96.5c12.1-26.5,36.8-46.2,65.5-51.7
				c58.8-11.3,110.5,33.7,110.5,90.5c0,21-7.3,41.3-20.5,57.7h-60.2 M688.9,976.9H404.6c-18,0-33-13.8-34.5-31.7l-7-83.6h367.1
				l-7,83.6C721.8,963.1,706.9,976.9,688.9,976.9z M754.4,827c0,6.4-5.2,11.5-11.5,11.5H350.6c-6.4,0-11.5-5.2-11.5-11.5
				s5.2-11.5,11.5-11.5h392.2C749.2,815.4,754.4,820.6,754.4,827z M977.1,760.6c-1.5,17.9-16.5,31.7-34.5,31.7H740.3h-18.1
				c4.3-18.2,6.6-37.5,6.6-57.7c0-3.8-0.1-7.7-0.2-11.5h46.4v-23.1h-48.1c-0.9-7.7-2-15.4-3.4-23.1h260.7L977.1,760.6z M996.6,653.9
				H721c-2-7.8-4.2-15.5-6.6-23.1h282.3c6.4,0,11.5,5.2,11.5,11.5C1008.2,648.8,1003,653.9,996.6,653.9z"/>
			<rect x="774.9" y="746.2" width="46.1" height="23.1"/>
			<rect x="821" y="700.1" width="46.1" height="23.1"/>
			<rect x="867.1" y="746.2" width="46.1" height="23.1"/>
			<rect x="913.3" y="700.1" width="46.1" height="23.1"/>
		</g>
		<g id="_x37_2umgZ_00000052789173082024475990000011279961206002033027_">
			<g>
				<path d="M509.1,706.2c2.2-3.2,4.3-6.4,6.4-9.6c0.5-0.8,1.2-0.6,1.9-0.6c10.1,0,20.3,0,30.4,0c0.6,0,1.3,0,2.1,0
					c-0.4-1.8-1.5-3-2.7-4.2c-4.1-4.2-9.2-6.1-14.9-6.8c-7-0.9-14-0.3-20.9-0.6c-0.6,0-1.2,0.2-1.9-0.3c2.1-3.2,4.2-6.3,6.3-9.4
					c0.5-0.8,1.3-0.5,1.9-0.5c12.9,0,25.8-0.1,38.8-0.1c9.2,0,18.5-0.1,27.7-0.1c0.8,0,1.7,0,2.6,0c0,0.9-0.6,1.4-1,2.1
					c-1.5,2.4-3.1,4.7-4.6,7.2c-0.6,0.9-1.2,1.3-2.3,1.2c-5-0.1-10.1,0-15.1,0c-0.7,0-1.4,0-2.1,0c-0.2,0.8,0.3,1.1,0.6,1.5
					c1.8,2.8,3.5,5.7,4.2,9c0.2,1.1,0.8,1.2,1.8,1.2c5.6,0,11.1,0,16.7,0c0.6,0,1.3,0,2.3,0c-2.3,3.5-4.4,6.7-6.5,10
					c-0.4,0.6-0.9,0.4-1.4,0.4c-3.6,0.1-7.1,0.2-10.7,0.2c-0.7,0-1.3-0.1-1.5,1c-2.4,12.6-10.4,20-22.2,24c-4.5,1.5-9.2,2.2-14,2.6
					c0,0.8,0.6,1.2,1,1.7c12.5,15.5,24.9,31,37.4,46.6c0.3,0.4,0.7,0.8,1,1.3c0.5,1.2,0.1,1.9-1.2,1.9c-4.4,0.1-8.8,0.1-13.2,0.3
					c-1,0-1.6-0.3-2.3-1c-13.3-15.9-26.7-31.7-40.1-47.5c-0.5-0.6-0.8-1.3-0.8-2.1c0-2.4,0-4.9-0.1-7.3c-0.1-1.2,0.4-1.5,1.5-1.4
					c6.7,0.5,13.4,0.2,19.9-1.5c5.7-1.5,10.8-3.8,14.3-8.8c1.7-2.4,2.5-5.2,3-8.1c0.2-1.4-0.2-1.8-1.6-1.8c-12.8,0.1-25.6,0-38.4,0
					C510.6,706.5,509.9,706.7,509.1,706.2z"/>
			</g>
		</g>
		<g id="_x37_2umgZ_00000094598731747105716640000015161288246950989972_">
			<g>
				<path d="M760.2,519.8c2.2-3.2,4.3-6.4,6.4-9.6c0.5-0.8,1.2-0.6,1.9-0.6c10.1,0,20.3,0,30.4,0c0.6,0,1.3,0,2.1,0
					c-0.4-1.8-1.5-3-2.7-4.2c-4.1-4.2-9.2-6.1-14.9-6.8c-7-0.9-14-0.3-20.9-0.6c-0.6,0-1.2,0.2-1.9-0.3c2.1-3.2,4.2-6.3,6.3-9.4
					c0.5-0.8,1.3-0.5,1.9-0.5c12.9,0,25.8-0.1,38.8-0.1c9.2,0,18.5-0.1,27.7-0.1c0.8,0,1.7,0,2.6,0c0,0.9-0.6,1.4-1,2.1
					c-1.5,2.4-3.1,4.7-4.6,7.2c-0.6,0.9-1.2,1.3-2.3,1.2c-5-0.1-10.1,0-15.1,0c-0.7,0-1.4,0-2.1,0c-0.2,0.8,0.3,1.1,0.6,1.5
					c1.8,2.8,3.5,5.7,4.2,9c0.2,1.1,0.8,1.2,1.8,1.2c5.6,0,11.1,0,16.7,0c0.6,0,1.3,0,2.3,0c-2.3,3.5-4.4,6.7-6.5,10
					c-0.4,0.6-0.9,0.4-1.4,0.4c-3.6,0.1-7.1,0.2-10.7,0.2c-0.7,0-1.3-0.1-1.5,1c-2.4,12.6-10.4,20-22.2,24c-4.5,1.5-9.2,2.2-14,2.6
					c0,0.8,0.6,1.2,1,1.7c12.5,15.5,24.9,31,37.4,46.6c0.3,0.4,0.7,0.8,1,1.3c0.5,1.2,0.1,1.9-1.2,1.9c-4.4,0.1-8.8,0.1-13.2,0.3
					c-1,0-1.6-0.3-2.3-1c-13.3-15.9-26.7-31.7-40.1-47.5c-0.5-0.6-0.8-1.3-0.8-2.1c0-2.4,0-4.9-0.1-7.3c-0.1-1.2,0.4-1.5,1.5-1.4
					c6.7,0.5,13.4,0.2,19.9-1.5c5.7-1.5,10.8-3.8,14.3-8.8c1.7-2.4,2.5-5.2,3-8.1c0.2-1.4-0.2-1.8-1.6-1.8c-12.8,0.1-25.6,0-38.4,0
					C761.7,520.1,761,520.3,760.2,519.8z"/>
			</g>
		</g>
	</g>
	<g>
		<polygon class="st0" points="385.4,619.6 218,619.6 191.4,551.1 214.2,482.6 263.7,452.2 309.9,448.3 353.3,459.8 381.6,486.4 
			400.6,520.7 404.4,551.1 400.6,581.5 		"/>
		<g>
			<path d="M384.5,711.1c0.8-40.9,4.7-83.3,17.5-121.9c1.8-5.5,4.3-10.7,7.3-15.5c0.5-2.7,1-5.3,1.8-7.9c-0.5,0.9-1,1.7-1.6,2.6
				c1-6,1.6-12.1,1.6-18.2c0-70.1-62.8-125.8-135.1-113.7c-38.2,6.4-71,32.6-86.2,68.2c-15,35.2-11.4,72.8,6.3,103.2h-54.4
				c-4.8-18-7.4-37.3-7.4-57.7c0-112,70.5-242.2,161.5-242.2c79,0,144.4,102.8,158.4,201.5c6.3-3,13.3-5,21.2-5.8
				c-0.2-3.3-0.2-6.6,0.1-9.9c-0.1,0.1-0.2,0.1-0.3,0.2c-18.8-104.2-89-209.1-179.4-209.1c-105.6,0-184.6,140.1-184.6,265.3
				c0,20.1,2.3,39.5,6.6,57.7h-16.5c-16.7,0-32.3,11.1-35.5,27.5c-3.7,18.3,7.2,34.6,23.1,39.8l7.3,87.4
				c2.5,29.7,27.7,52.9,57.5,52.9h167.3c0,0.1-0.1,0.2-0.1,0.4c1.7-0.1,3.3-0.2,5-0.2c0.2,0,0.4,0,0.5,0c0.2,0,0.4,0,0.5,0
				c2.1,0,4.2,0.1,6.2,0.3c2-0.2,4.1-0.3,6.2-0.3c0.3,0,0.6,0,0.9,0c0.2,0,0.5,0,0.7,0c0.4,0,0.9,0,1.3,0c0.3,0,0.6,0,0.9,0
				c0.9,0,1.8,0.1,2.7,0.1c0.9,0,1.8-0.1,2.7-0.1c1,0,2,0.1,3,0.1c0.6-0.2,1.2-0.3,1.9-0.3h38.8C386.4,779.2,381,745,384.5,711.1z
				 M313.9,459.6c28.7,5.5,53.4,25.1,65.5,51.7c15.3,33.5,9.4,70.1-11.9,96.5H223.9c-13.2-16.4-20.5-36.7-20.5-57.7
				C203.4,493.3,255.1,448.2,313.9,459.6z M153.6,792.4c-18,0-33-13.8-34.5-31.7l-7-83.6h260.7c-1.4,7.7-2.5,15.4-3.4,23.1h-48.1
				v23.1h46.4c-0.1,3.9-0.2,7.7-0.2,11.5c0,20.1,2.3,39.5,6.6,57.7H153.6z M375.2,653.9H99.6c-6.4,0-11.5-5.2-11.5-11.5
				c0-6.4,5.2-11.5,11.5-11.5h282.3C379.4,638.4,377.2,646.2,375.2,653.9z"/>
			<rect x="275.2" y="746.2" width="46.1" height="23.1"/>
			<rect x="229.1" y="700.1" width="46.1" height="23.1"/>
			<rect x="182.9" y="746.2" width="46.1" height="23.1"/>
			<rect x="136.8" y="700.1" width="46.1" height="23.1"/>
		</g>
		<g id="_x37_2umgZ_00000109709485751488991730000002270045030939443076_">
			<g>
				<path d="M258,519.8c2.2-3.2,4.3-6.4,6.4-9.6c0.5-0.8,1.2-0.6,1.9-0.6c10.1,0,20.3,0,30.4,0c0.6,0,1.3,0,2.1,0
					c-0.4-1.8-1.5-3-2.7-4.2c-4.1-4.2-9.2-6.1-14.9-6.8c-7-0.9-14-0.3-20.9-0.6c-0.6,0-1.2,0.2-1.9-0.3c2.1-3.2,4.2-6.3,6.3-9.4
					c0.5-0.8,1.3-0.5,1.9-0.5c12.9,0,25.8-0.1,38.8-0.1c9.2,0,18.5-0.1,27.7-0.1c0.8,0,1.7,0,2.6,0c0,0.9-0.6,1.4-1,2.1
					c-1.5,2.4-3.1,4.7-4.6,7.2c-0.6,0.9-1.2,1.3-2.3,1.2c-5-0.1-10.1,0-15.1,0c-0.7,0-1.4,0-2.1,0c-0.2,0.8,0.3,1.1,0.6,1.5
					c1.8,2.8,3.5,5.7,4.2,9c0.2,1.1,0.8,1.2,1.8,1.2c5.6,0,11.1,0,16.7,0c0.6,0,1.3,0,2.3,0c-2.3,3.5-4.4,6.7-6.5,10
					c-0.4,0.6-0.9,0.4-1.4,0.4c-3.6,0.1-7.1,0.2-10.7,0.2c-0.7,0-1.3-0.1-1.5,1c-2.4,12.6-10.4,20-22.2,24c-4.5,1.5-9.2,2.2-14,2.6
					c0,0.8,0.6,1.2,1,1.7c12.5,15.5,24.9,31,37.4,46.6c0.3,0.4,0.7,0.8,1,1.3c0.5,1.2,0.1,1.9-1.2,1.9c-4.4,0.1-8.8,0.1-13.2,0.3
					c-1,0-1.6-0.3-2.3-1c-13.3-15.9-26.7-31.7-40.1-47.5c-0.5-0.6-0.8-1.3-0.8-2.1c0-2.4,0-4.9-0.1-7.3c-0.1-1.2,0.4-1.5,1.5-1.4
					c6.7,0.5,13.4,0.2,19.9-1.5c5.7-1.5,10.8-3.8,14.3-8.8c1.7-2.4,2.5-5.2,3-8.1c0.2-1.4-0.2-1.8-1.6-1.8c-12.8,0.1-25.6,0-38.4,0
					C259.5,520.1,258.8,520.3,258,519.8z"/>
			</g>
		</g>
	</g>
</g>
</svg>
