<?xml version="1.0" encoding="utf-8"?>
<!-- Generator: Adobe Illustrator 27.1.0, SVG Export Plug-In . SVG Version: 6.00 Build 0)  -->
<svg version="1.1" id="Layer_1" xmlns="http://www.w3.org/2000/svg" xmlns:xlink="http://www.w3.org/1999/xlink" x="0px" y="0px"
	 viewBox="0 0 1082 1080" style="enable-background:new 0 0 1082 1080;" xml:space="preserve">
<style type="text/css">
	.st0{fill:#4F9B7E;}
	.st1{font-family:'Consolas-Bold';}
	.st2{font-size:86.2313px;}
</style>
<g>
	<g>
		<path d="M652.5,226.3c-7.2-3.7-16-0.9-19.7,6.3c-3.8,7.2-1.1,16.1,6.2,19.9l131.2,68.8c7.2,3.8,16.1,1.1,19.9-6.2l23.6-45.1
			l85.9,45l-21.1,6.6c-7.8,2.4-12.1,10.7-9.7,18.5c2.4,7.8,10.7,12.1,18.5,9.7l55.5-17.3c7.8-2.4,12.1-10.7,9.7-18.5l-17.3-55.5
			c-2.4-7.8-10.7-12.1-18.5-9.7c-7.8,2.4-12.1,10.7-9.7,18.5l6.8,21.9L814.2,237c-7.2-3.8-16.1-1-19.9,6.2l-23.6,45.1l-118-61.9
			C652.6,226.4,652.6,226.3,652.5,226.3z"/>
	</g>
	<polygon class="st0" points="471.4,730.4 642.1,730.4 642.1,545.5 572.6,491.8 514.8,499 478.6,542.4 471.4,619.5 	"/>
	<path d="M945.3,405H171l387.1-193.6l26.1,13c7.2,3.6,15.8,0.7,19.4-6.5c3.6-7.1,0.7-15.8-6.5-19.4l-32.5-16.3c-4.1-2-8.9-2-12.9,0
		L103.3,406.5c-7.1,3.6-10,12.3-6.5,19.4c2.5,4.9,7.5,8,12.9,8h65.1v289.3h-28.9c-8,0-14.5,6.5-14.5,14.5v43.4h-21.7
		c-8,0-14.5,6.5-14.5,14.5v57.9c0,8,6.5,14.5,14.5,14.5h896.8c8,0,14.5-6.5,14.5-14.5v-57.9c0-8-6.5-14.5-14.5-14.5h-21.7v-43.4
		c0-8-6.5-14.5-14.5-14.5h-28.9V433.9h65.1c8,0,14.5-6.5,14.5-14.5c0-5.5-3.1-10.5-8-12.9l-64.3-1.5 M883.6,433.9h28.9v289.3h-28.9
		V433.9z M789.6,433.9h65.1v289.3h-65.1V433.9z M731.7,433.9h28.9v289.3h-28.9V433.9z M413.5,433.9h289.3v289.3h-43.4V578.6
		c0-55.9-45.3-101.3-101.2-101.3c-55.9,0-101.3,45.3-101.3,101.2c0,0,0,0.1,0,0.1v144.6h-43.4V433.9z M630.5,578.6v144.6H485.8
		V578.6c0-39.9,32.4-72.3,72.3-72.3C598.1,506.3,630.5,538.6,630.5,578.6z M355.7,433.9h28.9v289.3h-28.9V433.9z M261.7,433.9h65.1
		v289.3h-65.1V433.9z M203.8,433.9h28.9v289.3h-28.9V433.9z M160.4,752.1h795.5v28.9H160.4V752.1z M124.2,810h867.8v28.9H124.2V810z
		"/>
	<text transform="matrix(1 0 0 1 509.6704 690.7412)" class="st1 st2">FD</text>
</g>
</svg>
