<?xml version="1.0" encoding="utf-8"?>
<!-- Generator: Adobe Illustrator 27.1.0, SVG Export Plug-In . SVG Version: 6.00 Build 0)  -->
<svg version="1.1" id="Layer_1" xmlns="http://www.w3.org/2000/svg" xmlns:xlink="http://www.w3.org/1999/xlink" x="0px" y="0px"
	 viewBox="0 0 1082 1080" style="enable-background:new 0 0 1082 1080;" xml:space="preserve">
<style type="text/css">
	.st0{fill:#4F9B7E;}
</style>
<g>
	<rect x="227.9" y="655.4" class="st0" width="616.9" height="334.7"/>
	<g id="_x38_4031F_00000011741267440175129640000005136658282428320921_">
		<g>
			<path d="M539.7,1018.7c-98.8,0-197.7-0.4-296.5,0.3c-18.5,0.1-24.2-6.4-24.1-24.6c0.7-101.6-0.1-203.3,0.6-304.9
				c0.1-16.6-3.2-23.6-21.6-23c-51.1,1.6-45.3,1.7-45.3-45.1c-0.1-52.6,0.5-105.2-0.4-157.7c-0.3-18.9,5.8-26.7,25.3-26.1
				c31.5,1.1,63.1-0.7,94.6,0.7c18.1,0.8,18.6-4.2,13.3-19.8c-52.1-154.7,39.9-317.9,197.5-351.8c204.2-44,378.4,148.5,314.5,347.4
				c-7.6,23.8-7.6,23.8,17.6,23.8c30.1,0,60.3,0.6,90.4-0.2c17.5-0.5,23.7,6.9,23.5,23.8c-0.5,61-0.4,122,0,182.9
				c0.1,16.1-6.7,22.3-22.7,22.6c-44,1.1-43.9,1.5-43.9,45.7c0,92.5,0,185.1,0,277.6c0,27.3-1.1,28.4-28.6,28.4
				C736,1018.8,637.9,1018.8,539.7,1018.7z M543.7,666.9c-89,0-178.1-0.1-267.1,0.1c-32.5,0.1-29.8-4.5-29.8,30.9
				c-0.1,89.7,0.5,179.5-0.4,269.2c-0.2,18.4,3.2,25.3,23.6,25.2c181.6-0.8,363.2-0.6,544.8-0.2c15,0,20.7-3.3,20.6-19.7
				c-0.8-95.3-0.8-190.7,0-286.1c0.1-16-4.8-20-20.2-19.8C724.6,667.2,634.1,666.9,543.7,666.9z M541.4,538.6
				c35,0,70.1-0.6,105.1,0.3c14.2,0.4,25.5-3.9,36.7-12.1C768,465,803.8,356,771.5,255.9C739.2,155.6,644.8,87.3,539.2,87.8
				c-104.1,0.5-199.1,70.4-229.7,169c-31.5,101.5,5.4,211,91.5,271.9c9.5,6.7,19,10.3,31,10.1C468.5,538.1,504.9,538.6,541.4,538.6z
				 M366.3,538.6c-23.1-23.7-42.2-43.9-56.6-67.8c-4.1-6.8-11-4.9-17.1-5c-31.5-0.1-63.1,0.6-94.6-0.3c-14-0.4-17.8,4.4-17.6,17.9
				c0.7,44.1,1.4,88.3-0.2,132.4c-0.8,20.3,6.6,23.9,24.9,23.8c113.5-0.8,227-0.4,340.6-0.4c112.1,0,224.2-0.1,336.4,0.1
				c11.4,0,20.1,0.3,19.8-15.8c-0.9-47.6-0.7-95.3-0.1-142.9c0.2-12.8-5.4-15.1-16.4-14.9c-32.2,0.5-64.5,0.1-96.7,0.2
				c-6.2,0-13.1-1.5-17,5.3c-14.1,24.1-33.6,44-56.3,67.5c35.1,0,65.6,0.1,96.1-0.1c10.5-0.1,21.4,0.8,21.3,14
				c-0.1,13.2-11.2,13.9-21.6,13.9c-180.1,0-360.2,0-540.3,0c-10.1,0-21.5,0.1-21.7-13.5c-0.2-15.4,12.4-14.2,22.9-14.2
				C301.5,538.5,330.9,538.6,366.3,538.6z"/>
		</g>
	</g>
	<g id="_x37_2umgZ_00000166678180013646072340000001128559227465918392_">
		<g>
			<path d="M448.5,277.3c5.1-7.6,10.1-15,15.1-22.5c1.2-1.8,2.9-1.3,4.5-1.3c23.8,0,47.6,0,71.4,0c1.5,0,3,0,4.9,0
				c-1-4.2-3.6-7.1-6.3-9.9c-9.6-9.8-21.7-14.3-35-16c-16.3-2-32.8-0.7-49.2-1.5c-1.3-0.1-2.7,0.4-4.4-0.7c5-7.4,9.9-14.8,14.8-22.1
				c1.2-1.8,3-1.2,4.5-1.2c30.3-0.1,60.7-0.2,91-0.3c21.7-0.1,43.4-0.1,65.1-0.2c1.9,0,3.9,0,6,0c-0.1,2.2-1.5,3.4-2.4,4.8
				c-3.6,5.6-7.4,11.1-10.9,16.8c-1.3,2.1-2.8,2.9-5.3,2.9c-11.8-0.1-23.7-0.1-35.5-0.1c-1.6,0-3.3,0-4.9,0
				c-0.5,1.8,0.7,2.5,1.3,3.5c4.2,6.6,8.1,13.3,9.8,21.1c0.5,2.6,1.9,2.8,4.1,2.8c13.1-0.1,26.2,0,39.3,0c1.5,0,3,0,5.3,0
				c-5.4,8.2-10.3,15.8-15.3,23.5c-0.9,1.3-2.2,1-3.4,1c-8.3,0.2-16.7,0.4-25,0.6c-1.7,0-3.1-0.2-3.5,2.3
				c-5.7,29.6-24.5,47-52.1,56.4c-10.6,3.6-21.6,5.1-32.8,6c0.1,1.9,1.4,2.9,2.3,4c29.2,36.5,58.5,72.9,87.8,109.4
				c0.8,1,1.7,1.9,2.2,3c1.3,2.8,0.2,4.4-2.8,4.5c-10.3,0.2-20.6,0.3-30.9,0.6c-2.3,0.1-3.8-0.6-5.3-2.4
				c-31.4-37.3-62.8-74.5-94.2-111.7c-1.3-1.5-1.8-3-1.8-4.9c0-5.7,0-11.4-0.3-17.1c-0.2-2.9,1-3.4,3.6-3.2
				c15.8,1.2,31.5,0.5,46.8-3.5c13.3-3.5,25.4-9,33.7-20.8c4-5.7,5.9-12.2,7-19c0.5-3.4-0.5-4.2-3.9-4.2
				c-30.1,0.1-60.1,0.1-90.2,0.1C452.1,277.9,450.4,278.4,448.5,277.3z"/>
		</g>
	</g>
</g>
</svg>
