<?xml version="1.0" encoding="utf-8"?>
<!-- Generator: Adobe Illustrator 27.1.0, SVG Export Plug-In . SVG Version: 6.00 Build 0)  -->
<svg version="1.1" id="Layer_1" xmlns="http://www.w3.org/2000/svg" xmlns:xlink="http://www.w3.org/1999/xlink" x="0px" y="0px"
	 viewBox="0 0 1082 1080" style="enable-background:new 0 0 1082 1080;" xml:space="preserve">
<style type="text/css">
	.st0{fill:#4F9B7E;}
</style>
<g>
	<polygon class="st0" points="287.6,249.5 809.1,249.5 825.3,294.7 825.3,428.1 603.6,493.8 585.2,493.8 585.2,449 500,449 
		500,489.7 265,434.7 265,249.5 	"/>
	<g>
		<path d="M853.6,836.8c0-8.2,6.7-14.9,14.9-14.9s14.9,6.7,14.9,14.9c0,8.2-6.7,14.9-14.9,14.9S853.6,845,853.6,836.8L853.6,836.8z
			 M913.2,851.7c8.2,0,14.9-6.7,14.9-14.9c0-8.2-6.7-14.9-14.9-14.9c-8.2,0-14.9,6.7-14.9,14.9C898.3,845,905,851.7,913.2,851.7
			L913.2,851.7z M555.3,508.7c0-8.2-6.7-14.9-14.9-14.9c-8.2,0-14.9,6.7-14.9,14.9c0,8.2,6.7,14.9,14.9,14.9
			C548.6,523.7,555.3,517,555.3,508.7L555.3,508.7z M988,354.3v492.1c0,24.7-20,44.7-44.7,44.7H621l19.9,59.6
			c16.4-1.5,32.3,6.1,41.4,19.9c9.1,13.7,9.9,31.3,2.2,45.9c-7.8,14.5-23,23.6-39.4,23.6H436.3c-16.5-0.1-31.6-9.1-39.4-23.6
			c-7.7-14.6-6.9-32.2,2.2-45.9c9.1-13.8,25.1-21.4,41.4-19.9l19.9-59.6H138c-24.7,0-44.7-20-44.7-44.7V354.3
			c0-24.7,20-44.7,44.7-44.7h104.4v-29.8c0-24.7,20-44.7,44.7-44.7h134.2c0-49.4,40.1-89.5,89.5-89.5h59.6
			c49.4,0,89.5,40.1,89.5,89.5h134.2c24.7,0,44.7,20,44.7,44.7v29.8h104.4C968,309.6,988,329.6,988,354.3L988,354.3z M242.4,413.6
			V399h-59.6v372.8h715.8V399h-59.6v14.6c0.1,18.9-11.9,35.8-29.8,42v137.2c0,24.7-20,44.7-44.7,44.7H317c-24.7,0-44.7-20-44.7-44.7
			V455.7C254.4,449.4,242.4,432.5,242.4,413.6L242.4,413.6z M302.1,463.1v129.8c0,8.2,6.7,14.9,14.9,14.9h447.3
			c8.2,0,14.9-6.7,14.9-14.9V463.1L600.1,505c-0.7,32.3-27.2,58.2-59.5,58.1c-32.4-0.1-58.8-25.9-59.5-58.3L302.1,463.1z
			 M540.7,533.3c16.5,0,29.8-13.3,29.8-29.8v-44.7h-59.6v44.7C510.8,519.9,524.2,533.3,540.7,533.3L540.7,533.3z M451,235h14.9
			c0-24.7,20-44.7,44.7-44.7h59.6c24.7,0,44.7,20,44.7,44.7h14.9c-0.1-32.9-26.7-59.6-59.6-59.6h-59.6
			C477.7,175.4,451,202.1,451,235L451,235z M570.2,220.1h-59.6c-8.2,0-14.9,6.7-14.9,14.9h89.5C585.2,226.8,578.5,220.1,570.2,220.1
			L570.2,220.1z M272.2,417.5c0,4.7,3.2,8.7,7.8,9.8l201,46.8v-25.2c0-11.1,9-20,20-20h69.4c16.5,0,29.8,13.4,29.8,29.8v15.6
			l197.3-46.1c6.7-1.6,11.5-7.6,11.5-14.5V279.8c0-8.2-6.7-14.9-14.9-14.9H282.3c-5.5,0-10,4.5-10,10V417.5z M123.1,771.8H153V384.1
			c0-8.2,6.7-14.9,14.9-14.9h74.6v-29.8H138c-8.2,0-14.9,6.7-14.9,14.9V771.8z M436,980.6c-8.2,0-14.9,6.7-14.9,14.9
			c0,8.2,6.7,14.9,14.9,14.9h208.8c8.2,0,14.9-6.7,14.9-14.9c0-8.2-6.7-14.9-14.9-14.9H436z M609.2,950.8l-19.9-59.6h-97.8
			l-19.9,59.6H609.2z M958.2,801.7h-835v44.7c0,8.2,6.7,14.9,14.9,14.9h805.2c8.2,0,14.9-6.7,14.9-14.9V801.7z M958.2,354.3
			c0-8.2-6.7-14.9-14.9-14.9H838.9v29.8h74.6c8.2,0,14.9,6.7,14.9,14.9v387.7h29.8V354.3z M957.9,359.6"/>
	</g>
</g>
</svg>
